<svg xmlns="http://www.w3.org/2000/svg" version="1.1" xmlns:xlink="http://www.w3.org/1999/xlink" xmlns:svgjs="http://svgjs.com/svgjs" width="1440" height="560" preserveAspectRatio="none" viewBox="0 0 1440 560"><g mask="url(&quot;#SvgjsMask1001&quot;)" fill="none"><rect width="1440" height="560" x="0" y="0" fill="rgba(26, 33, 40, 1)"></rect><path d="M1039.86 82.14L1044.68 82.14L1044.68 131.65L1039.86 131.65z" fill="#e73635"></path><path d="M746.48 420.7a2.34 2.34 0 1 0-4.35-1.75z" fill="#d3b714"></path><path d="M803.45 314.3 a1.55 1.55 0 1 0 3.1 0 a1.55 1.55 0 1 0 -3.1 0z" fill="#037b0b"></path><path d="M321.19 303.94a42.7 42.7 0 1 0 22.63 82.35z" stroke="#e73635"></path><path d="M1179.64 543.79L1188.4 543.79L1188.4 579.32L1179.64 579.32z" fill="#e73635"></path><path d="M587.39 66.72a20.41 20.41 0 1 0-22.35-34.17z" fill="#d3b714"></path><path d="M897.75 465.64a54.43 54.43 0 1 0-76.53-77.42z" fill="#037b0b"></path><path d="M148.32 130.45a50.54 50.54 0 1 0 95.74 32.44z" fill="#e73635"></path><path d="M134.23 578.75a37.45 37.45 0 1 0 1.92-74.87z" stroke="#d3b714"></path><path d="M1326.98 526.52 a33.86 33.86 0 1 0 67.72 0 a33.86 33.86 0 1 0 -67.72 0z" stroke="#037b0b"></path><path d="M988.85 544.14a2.85 2.85 0 1 0-5.63 0.92z" fill="#e73635"></path><path d="M1094.75 384.59L1118.23 384.59L1118.23 408.07L1094.75 408.07z" fill="#e73635"></path><path d="M152.6 496.56a27.85 27.85 0 1 0 23.99 50.27z" stroke="#d3b714"></path><path d="M1405.83 348.85 a2.49 2.49 0 1 0 4.98 0 a2.49 2.49 0 1 0 -4.98 0z" stroke="#037b0b"></path><path d="M1192.53 362.25 a55.01 55.01 0 1 0 110.02 0 a55.01 55.01 0 1 0 -110.02 0z" stroke="#e73635"></path><path d="M666.8 206.67a35.02 35.02 0 1 0-11.59 69.07z" stroke="#e73635"></path><path d="M884.6 474.55L893.99 474.55L893.99 483.94L884.6 483.94z" stroke="#e73635"></path><path d="M531.87 124.27L571 124.27L571 160.66L531.87 160.66z" stroke="#e73635"></path><path d="M1391.18 168.23L1423.78 168.23L1423.78 212.58L1391.18 212.58z" stroke="#037b0b"></path><path d="M1044.71 258 a34.86 34.86 0 1 0 69.72 0 a34.86 34.86 0 1 0 -69.72 0z" stroke="#e73635"></path><path d="M397.11 413.45 a15.2 15.2 0 1 0 30.4 0 a15.2 15.2 0 1 0 -30.4 0z" stroke="#d3b714"></path><path d="M1077.88 142.28L1084.15 142.28L1084.15 148.55L1077.88 148.55z" fill="#e73635"></path><path d="M306.59 376.82 a36.2 36.2 0 1 0 72.4 0 a36.2 36.2 0 1 0 -72.4 0z" fill="#e73635"></path><path d="M561.93 484.42L606.77 484.42L606.77 537.21L561.93 537.21z" stroke="#e73635"></path><path d="M722.61 503.93L752.01 503.93L752.01 533.33L722.61 533.33z" fill="#e73635"></path><path d="M1009.65 23.68L1053.59 23.68L1053.59 42.48L1009.65 42.48z" stroke="#e73635"></path><path d="M323.97 458.34a47.07 47.07 0 1 0-25.47 90.63z" stroke="#e73635"></path><path d="M1319.63 344.38 a13.46 13.46 0 1 0 26.92 0 a13.46 13.46 0 1 0 -26.92 0z" fill="#e73635"></path><path d="M851.57 197.18a32.17 32.17 0 1 0 35.55 53.63z" fill="#037b0b"></path><path d="M964.82 63.19 a20.33 20.33 0 1 0 40.66 0 a20.33 20.33 0 1 0 -40.66 0z" stroke="#037b0b"></path><path d="M856.22 251.57L873.04 251.57L873.04 287.07L856.22 287.07z" fill="#037b0b"></path><path d="M680.53 470.1 a11.99 11.99 0 1 0 23.98 0 a11.99 11.99 0 1 0 -23.98 0z" stroke="#037b0b"></path><path d="M924.4 215.48a0.21 0.21 0 1 0-0.18 0.38z" fill="#037b0b"></path></g><defs><mask id="SvgjsMask1001"><rect width="1440" height="560" fill="#ffffff"></rect></mask></defs></svg>