<svg xmlns="http://www.w3.org/2000/svg" version="1.1" xmlns:xlink="http://www.w3.org/1999/xlink" xmlns:svgjs="http://svgjs.com/svgjs" width="1440" height="560" preserveAspectRatio="none" viewBox="0 0 1440 560"><g mask="url(&quot;#SvgjsMask1017&quot;)" fill="none"><rect width="1440" height="560" x="0" y="0" fill="rgba(53, 108, 177, 1)"></rect><path d="M1512 560L0 560 L0 358.4Q3 289.4, 72 292.41Q138.28 238.69, 192 304.97Q273.5 266.47, 312 347.96Q340.74 256.69, 432 285.43Q481.73 263.16, 504 312.9Q574.71 263.61, 624 334.32Q669.8 308.12, 696 353.91Q715.8 301.72, 768 321.52Q816.66 250.18, 888 298.84Q979.4 270.25, 1008 361.65Q1054.57 288.22, 1128 334.79Q1168.44 255.24, 1248 295.68Q1335.18 262.87, 1368 350.05Q1397.49 307.54, 1440 337.03Q1453.13 278.16, 1512 291.3z" fill="rgba(95, 142, 200, 1)"></path><path d="M1560 560L0 560 L0 438.73Q39.02 405.75, 72 444.77Q99.52 400.29, 144 427.82Q141.47 353.29, 216 350.76Q297.17 359.93, 288 441.1Q285.83 366.93, 360 364.76Q394.64 327.4, 432 362.05Q505.47 363.52, 504 436.99Q569.4 382.39, 624 447.8Q640.67 392.47, 696 409.13Q766.86 359.99, 816 430.85Q824.71 367.56, 888 376.27Q936.62 304.89, 1008 353.51Q1064.05 337.56, 1080 393.6Q1132.08 325.68, 1200 377.76Q1286.06 343.82, 1320 429.88Q1348.59 338.47, 1440 367.06Q1522.58 329.63, 1560 412.21z" fill="rgba(117, 151, 208, 1)"></path><path d="M1488 560L0 560 L0 485.21Q40.38 405.59, 120 445.97Q169.08 423.06, 192 472.14Q248.8 456.94, 264 513.74Q266.65 444.39, 336 447.05Q384.41 375.46, 456 423.86Q547.88 395.74, 576 487.61Q612.85 404.46, 696 441.3Q723.78 397.09, 768 424.87Q827.17 412.04, 840 471.21Q905.15 416.36, 960 481.51Q980.86 430.37, 1032 451.23Q1056.24 403.48, 1104 427.72Q1193.55 397.27, 1224 486.82Q1250.96 441.78, 1296 468.74Q1342.62 395.36, 1416 441.97Q1444.8 398.77, 1488 427.58z" fill="rgba(135, 182, 242, 1)"></path><path d="M1536 560L0 560 L0 539.84Q50.44 518.28, 72 568.71Q101.35 478.06, 192 507.41Q274.13 469.54, 312 551.67Q332.76 500.43, 384 521.2Q468.71 485.91, 504 570.63Q529.21 475.84, 624 501.04Q671.19 476.24, 696 523.43Q746.57 502, 768 552.57Q820.15 532.73, 840 584.88Q875.08 499.96, 960 535.05Q986.31 489.36, 1032 515.66Q1085.36 497.02, 1104 550.38Q1148.55 522.93, 1176 567.49Q1207.73 479.23, 1296 510.96Q1347.61 442.57, 1416 494.18Q1507.77 465.95, 1536 557.72z" fill="white"></path></g><defs><mask id="SvgjsMask1017"><rect width="1440" height="560" fill="#ffffff"></rect></mask></defs></svg>